<?xml version="1.0" encoding="UTF-8"?><svg xmlns="http://www.w3.org/2000/svg" xmlns:xlink="http://www.w3.org/1999/xlink" viewBox="0 0 48 48" version="1.1"><g id="surface1"><path d="M47 22L24 33.5 1 22v3.5L24 37l23-11.5z" fill="#37474F"/><path d="M38.094 23.344l3.508-1.754C38.254 15.29 31.629 11 24 11c-7.785 0-14.512 4.473-17.79 10.98 3.485-4.789 9.114-7.914 15.49-7.914 6.96 0 13.038 3.723 16.394 9.278z" fill="#FF9100"/><path d="M32.484 25.957L36 24.195C33.66 19.91 29.11 17 23.883 17c-5.688 0-10.57 3.441-12.684 8.355 2.367-3.203 6.153-5.289 10.43-5.289 4.543 0 8.531 2.344 10.855 5.891z" fill="#FF6E40"/><path d="M27.02 28.656l3.523-1.765C29.223 24.6 26.781 23 23.957 23c-3.367 0-6.195 2.242-7.21 5.277 1.253-1.328 3.015-2.168 4.98-2.168 2.144 0 4.03 1.004 5.293 2.547z" fill="#AD1457"/></g><metadata><rdf:RDF xmlns:rdf="http://www.w3.org/1999/02/22-rdf-syntax-ns#" xmlns:rdfs="http://www.w3.org/2000/01/rdf-schema#" xmlns:dc="http://purl.org/dc/elements/1.1/"><rdf:Description about="https://iconscout.com/legal#licenses" dc:title="audible" dc:description="audible" dc:publisher="Iconscout" dc:date="2017-12-15" dc:format="image/svg+xml" dc:language="en"><dc:creator><rdf:Bag><rdf:li>Icons8</rdf:li></rdf:Bag></dc:creator></rdf:Description></rdf:RDF></metadata></svg>