<svg xmlns="http://www.w3.org/2000/svg" xmlns:xlink="http://www.w3.org/1999/xlink" width="800" height="800" viewBox="0 0 800 800">
  <defs>
    <clipPath id="clip-logo5">
      <rect width="800" height="800"/>
    </clipPath>
  </defs>
  <g id="logo5" clip-path="url(#clip-logo5)">
    <g id="google_pay" data-name="google pay" transform="translate(39 39)">
      <circle id="Ellipse_24" data-name="Ellipse 24" cx="361" cy="361" r="361" fill="#fff"/>
      <path id="Path_186" data-name="Path 186" d="M679.3,729.245a359.519,359.519,0,0,1-190-53.946L731.224,10.6c187.558,27.074,322.3,194.5,308.634,383.512S868.774,729.429,679.272,729.245Z" transform="translate(-318.125 -6.895)" fill="#6e7bf2"/>
      <path id="Path_187" data-name="Path 187" d="M524.279,994.274a76.538,76.538,0,0,0-1.856-18.075H439.3v32.848h48.8a43.208,43.208,0,0,1-18.075,28.725l-.174,1.085,26.271,20.362,1.821.174a86.582,86.582,0,0,0,26.34-65.1" transform="translate(-285.616 -634.684)" fill="#4285f4"/>
      <path id="Path_188" data-name="Path 188" d="M292.363,1143.253a84.43,84.43,0,0,0,58.632-21.447l-27.919-21.655A52.323,52.323,0,0,1,292.4,1109a53.367,53.367,0,0,1-50.38-36.8l-1.05.1-27.321,21.134-.348.98a88.246,88.246,0,0,0,79.063,48.838" transform="translate(-138.679 -697.105)" fill="#34a853"/>
      <path id="Path_189" data-name="Path 189" d="M224.434,965.088a54.225,54.225,0,0,1-2.941-17.525,57.482,57.482,0,0,1,2.871-17.526l-.035-1.154L196.655,907.4l-.911.417a88.329,88.329,0,0,0,0,79.48l28.69-22.246" transform="translate(-121.13 -589.94)" fill="#fbbc05"/>
      <path id="Path_190" data-name="Path 190" d="M292.221,803.483a48.848,48.848,0,0,1,34.217,13.209l24.992-24.381a85.13,85.13,0,0,0-59.23-23.017,88.434,88.434,0,0,0-79.1,48.8l28.614,22.245a53.579,53.579,0,0,1,50.519-36.8" transform="translate(-138.537 -500.14)" fill="#eb4335"/>
      <path id="Path_191" data-name="Path 191" d="M1042.277,874.579v64.333H1021.7V779.979h54.537a49.532,49.532,0,0,1,35.336,13.751,45.741,45.741,0,0,1,2.621,64.652q-1.26,1.39-2.621,2.621a49.4,49.4,0,0,1-35.336,13.536l-33.966.034Zm0-75.038v55.483h34.461A27.662,27.662,0,0,0,1097.8,808.7l-.208-.209a7.034,7.034,0,0,0-.528-.528,26.9,26.9,0,0,0-20.328-8.432Zm131.39,27.112a51.115,51.115,0,0,1,36,12.1,42.745,42.745,0,0,1,13.207,33.168v67.029h-19.66V923.841h-.876a39.361,39.361,0,0,1-34,18.645,44.172,44.172,0,0,1-30.261-10.671,33.953,33.953,0,0,1-12.172-26.626,32.222,32.222,0,0,1,12.841-26.834,54.528,54.528,0,0,1,34.321-9.97,61.309,61.309,0,0,1,30.156,6.646v-4.685a23.11,23.11,0,0,0-8.5-18.075,29.2,29.2,0,0,0-19.834-7.417,31.606,31.606,0,0,0-27.251,14.412l-18.075-11.332a50.234,50.234,0,0,1,44.151-21.307Zm-26.625,78.994a16.326,16.326,0,0,0,6.784,13.327,25.17,25.17,0,0,0,15.99,5.318,32.759,32.759,0,0,0,23.123-9.554,29.755,29.755,0,0,0,10.211-22.425,42.3,42.3,0,0,0-26.835-7.646,34.867,34.867,0,0,0-20.854,5.986,18.122,18.122,0,0,0-8.4,14.973Zm188.707-75.427L1267.1,986.844h-21.238l25.471-54.822-45.187-101.872H1248.5l32.673,78.117h.452l31.728-78.117Z" transform="translate(-664.264 -507.105)" fill="#fff"/>
    </g>
  </g>
</svg>
