<svg xmlns="http://www.w3.org/2000/svg" xmlns:xlink="http://www.w3.org/1999/xlink" width="800" height="800" viewBox="0 0 800 800">
  <defs>
    <radialGradient id="radial-gradient" cx="0.065" cy="0.978" r="1.27" gradientUnits="objectBoundingBox">
      <stop offset="0.09" stop-color="#fa8f21"/>
      <stop offset="0.78" stop-color="#d82d7e"/>
    </radialGradient>
    <radialGradient id="radial-gradient-2" cx="0.693" cy="0.946" r="1.117" gradientUnits="objectBoundingBox">
      <stop offset="0.64" stop-color="#8c3aaa" stop-opacity="0"/>
      <stop offset="1" stop-color="#8c3aaa"/>
    </radialGradient>
    <clipPath id="clip-logo7">
      <rect width="800" height="800"/>
    </clipPath>
  </defs>
  <g id="logo7" clip-path="url(#clip-logo7)">
    <g id="instagram" transform="translate(50.03 49.509)">
      <path id="Path_16" data-name="Path 16" d="M177.62,697.976a235.826,235.826,0,0,1-79.337-14.689,132.736,132.736,0,0,1-49.128-31.953,131.72,131.72,0,0,1-31.987-49.121A235.826,235.826,0,0,1,2.5,522.883C.419,477.848,0,464.34,0,350.227S.46,222.655,2.479,177.586a237.152,237.152,0,0,1,14.689-79.3,133.224,133.224,0,0,1,31.96-49.155,131.892,131.892,0,0,1,49.135-31.96A235.827,235.827,0,0,1,177.6,2.479C222.649.419,236.177,0,350.227,0S477.8.46,522.869,2.479a237.153,237.153,0,0,1,79.323,14.689A132.221,132.221,0,0,1,651.32,49.121a132.311,132.311,0,0,1,31.967,49.142,235.827,235.827,0,0,1,14.7,79.337c2.06,45.069,2.479,58.564,2.479,172.642s-.419,127.572-2.479,172.642a236.918,236.918,0,0,1-14.7,79.33,141.465,141.465,0,0,1-81.095,81.074,235.837,235.837,0,0,1-79.337,14.7c-45.028,2.06-58.564,2.479-172.642,2.479s-127.572-.4-172.6-2.479" transform="translate(0 0)" fill="url(#radial-gradient)"/>
      <path id="Path_17" data-name="Path 17" d="M177.62,697.976a235.826,235.826,0,0,1-79.337-14.689,132.736,132.736,0,0,1-49.128-31.953,131.72,131.72,0,0,1-31.987-49.121A235.826,235.826,0,0,1,2.5,522.883C.419,477.848,0,464.34,0,350.227S.46,222.655,2.479,177.586a237.152,237.152,0,0,1,14.689-79.3,133.224,133.224,0,0,1,31.96-49.155,131.892,131.892,0,0,1,49.135-31.96A235.827,235.827,0,0,1,177.6,2.479C222.649.419,236.177,0,350.227,0S477.8.46,522.869,2.479a237.153,237.153,0,0,1,79.323,14.689A132.221,132.221,0,0,1,651.32,49.121a132.311,132.311,0,0,1,31.967,49.142,235.827,235.827,0,0,1,14.7,79.337c2.06,45.069,2.479,58.564,2.479,172.642s-.419,127.572-2.479,172.642a236.918,236.918,0,0,1-14.7,79.33,141.465,141.465,0,0,1-81.095,81.074,235.837,235.837,0,0,1-79.337,14.7c-45.028,2.06-58.564,2.479-172.642,2.479s-127.572-.4-172.6-2.479" transform="translate(0 0)" fill="url(#radial-gradient-2)"/>
      <path id="Path_18" data-name="Path 18" d="M609.343,699.727a86.74,86.74,0,1,1,86.737,86.747,86.738,86.738,0,0,1-86.737-86.747m-46.9,0a133.626,133.626,0,1,1,0,.007M803.753,560.811A31.225,31.225,0,1,0,834.992,529.6h0a31.239,31.239,0,0,0-31.225,31.212M590.953,911.546a143.813,143.813,0,0,1-48.325-8.927,86.164,86.164,0,0,1-49.4-49.376,143.682,143.682,0,0,1-8.928-48.324c-1.263-27.427-1.511-35.668-1.511-105.157s.275-77.709,1.511-105.164a144.776,144.776,0,0,1,8.928-48.324,86.114,86.114,0,0,1,49.4-49.4,143.68,143.68,0,0,1,48.325-8.927c27.427-1.263,35.668-1.511,105.13-1.511s77.709.268,105.164,1.518a144.767,144.767,0,0,1,48.324,8.927,86.121,86.121,0,0,1,49.4,49.4,143.705,143.705,0,0,1,8.927,48.324c1.263,27.469,1.51,35.668,1.51,105.164s-.254,77.709-1.51,105.164a144.369,144.369,0,0,1-8.927,48.324,86.164,86.164,0,0,1-49.4,49.375,143.712,143.712,0,0,1-48.324,8.927c-27.427,1.264-35.668,1.511-105.164,1.511s-77.709-.254-105.13-1.511M588.8,441.095a190.813,190.813,0,0,0-63.179,12.086,133.038,133.038,0,0,0-76.109,76.11,190.872,190.872,0,0,0-12.087,63.178c-1.284,27.744-1.573,36.616-1.573,107.286s.3,79.536,1.573,107.286a190.862,190.862,0,0,0,12.086,63.178,133.042,133.042,0,0,0,76.109,76.109A190.983,190.983,0,0,0,588.8,958.415c27.757,1.264,36.616,1.573,107.286,1.573s79.536-.3,107.286-1.573a190.917,190.917,0,0,0,63.179-12.086,133.047,133.047,0,0,0,76.109-76.109,190.348,190.348,0,0,0,12.086-63.179c1.264-27.764,1.552-36.616,1.552-107.286s-.3-79.536-1.552-107.286a190.808,190.808,0,0,0-12.086-63.178,133.078,133.078,0,0,0-76.089-76.109,190.544,190.544,0,0,0-63.179-12.087c-27.75-1.27-36.616-1.572-107.272-1.572s-79.543.3-107.307,1.573" transform="translate(-345.114 -348.01)" fill="#fff"/>
    </g>
  </g>
</svg>
