<svg xmlns="http://www.w3.org/2000/svg" xmlns:xlink="http://www.w3.org/1999/xlink" width="800" height="800" viewBox="0 0 800 800">
  <defs>
    <clipPath id="clip-logo6">
      <rect width="800" height="800"/>
    </clipPath>
  </defs>
  <g id="logo6" clip-path="url(#clip-logo6)">
    <g id="google_play_music" data-name="google play music" transform="translate(88 42.975)">
      <path id="Path_120" data-name="Path 120" d="M0,15.277A15.183,15.183,0,0,1,7.646,2.057a15.4,15.4,0,0,1,15.293,0L617.005,341.612a15.251,15.251,0,0,1,0,26.44L26.117,712.864a15.4,15.4,0,0,1-15.293,0,15.183,15.183,0,0,1-7.646-13.22C3.027,699.644,0,15.277,0,15.277Z" transform="translate(0 0)" fill="#f15a35"/>
      <path id="Path_121" data-name="Path 121" d="M492.165,313.836c0-127.863-100.563-233.174-228.34-239.072C136,68.891,26.181,164.514,14.425,291.886s78.7,241.48,205.4,259.1L475.6,401.432a238.053,238.053,0,0,0,16.562-87.6ZM252.789,468.327A154.492,154.492,0,1,1,407.28,313.836,154.492,154.492,0,0,1,252.789,468.327Z" transform="translate(7.928 44.181)" fill="#fbcb1a"/>
      <path id="Path_122" data-name="Path 122" d="M221.191,127.9A154.492,154.492,0,1,0,375.683,282.392,154.492,154.492,0,0,0,221.191,127.9Zm83.3,120.564A57.06,57.06,0,0,0,271.366,227.6c-7.646-1.592-15.293-3.823-23.1-5.9-.316,14.5-.316,29.3-.954,43.8q-1.908,45.871-4.118,91.735a40.943,40.943,0,0,1-35.1,39.042,55.405,55.405,0,0,1-58.768-21.964,39.337,39.337,0,0,1,20.7-62.111,58.343,58.343,0,0,1,46.674,4.3,24.253,24.253,0,0,1,2.7,1.435c-1.112-36.152-2.231-71.672-3.5-107.028a132.622,132.622,0,0,0-1.75-15.787,72.907,72.907,0,0,1,2.231-29.144c5.573,4.8,10.831,9.239,15.924,13.858a66.7,66.7,0,0,0,37.106,16.4,64.1,64.1,0,0,1,33.763,15.924,22.506,22.506,0,0,1,9.239,19.274c0,9.239,1.112,18.478,1.908,28.828-3.665-4.619-6.864-8.12-9.877-11.785Z" transform="translate(39.532 75.789)" fill="#f78c1e"/>
      <path id="Path_123" data-name="Path 123" d="M275.61,197.887a65.309,65.309,0,0,0-33.763-15.924,66.223,66.223,0,0,1-37.106-16.4c-5.1-4.619-10.351-8.923-15.924-13.858a72.908,72.908,0,0,0-2.231,29.144,132.613,132.613,0,0,1,1.75,15.787c1.277,35.513,2.231,70.876,3.5,107.028a19.414,19.414,0,0,1-2.7-1.434,58.342,58.342,0,0,0-46.674-4.3,39.385,39.385,0,0,0-20.7,62.111A55.6,55.6,0,0,0,180.525,382a40.943,40.943,0,0,0,35.006-39.021c1.435-30.578,3.027-61.157,4.118-91.735.638-14.654.638-29.3.954-43.8,7.8,2.059,15.293,4.3,23.1,5.9a55.81,55.81,0,0,1,33.125,20.866c3.027,3.665,6.177,7.166,10.035,11.627-.8-10.509-1.908-19.589-1.908-28.828a22.96,22.96,0,0,0-9.4-19.109Z" transform="translate(67.295 89.892)" fill="#fff" fill-rule="evenodd"/>
    </g>
  </g>
</svg>
